<?xml version="1.0" encoding="UTF-8" standalone="no" ?>
<!DOCTYPE svg PUBLIC "-//W3C//DTD SVG 1.1//EN" "http://www.w3.org/Graphics/SVG/1.1/DTD/svg11.dtd">
<svg xmlns="http://www.w3.org/2000/svg" xmlns:xlink="http://www.w3.org/1999/xlink" version="1.1" width="78" height="78" viewBox="0 0 78 78" xml:space="preserve">
<desc>Created with Fabric.js 3.6.6</desc>
<defs>
</defs>
<g transform="matrix(1 0 0 1 230 190)"  >
<g style=""   >
</g>
</g>
<g transform="matrix(1 0 0 1 42.77 42.93)"  >
<g style=""   >
		<g transform="matrix(1 0 0 1 -3.82 -4)" id="椭圆 3"  >
<circle style="stroke: none; stroke-width: 1; stroke-dasharray: none; stroke-linecap: butt; stroke-dashoffset: 0; stroke-linejoin: miter; stroke-miterlimit: 4; fill: rgb(39,121,255); fill-rule: nonzero; opacity: 1;"  cx="0" cy="0" r="39" />
</g>
		<g transform="matrix(1 0 0 1 -4 -4)" id="矢量 13"  >
<path style="stroke: none; stroke-width: 1; stroke-dasharray: none; stroke-linecap: butt; stroke-dashoffset: 0; stroke-linejoin: miter; stroke-miterlimit: 4; fill: rgb(255,255,255); fill-rule: evenodd; opacity: 1;"  transform=" translate(-49.44, -39.59)" d="M 57.83 53.19 L 72.87 53.19 L 64.75 26 L 50.31 26 L 50.34 27.9 C 50.19 27.83 50.04 27.77 49.89 27.71 C 48.04 26.96 45.93 26.59 43.54 26.59 L 33.94 26.59 L 26 53.19 L 47.34 53.19 L 47.41 50.36 C 47.59 50.47 47.76 50.58 47.94 50.69 C 50.75 52.34 54.08 53.19 57.83 53.19 Z M 43.11 46.22 L 47.52 46.22 L 47.41 50.36 C 45.87 49.38 44.59 48.21 43.58 46.87 C 43.42 46.66 43.26 46.44 43.11 46.22 Z M 43.11 46.22 L 34.55 46.22 L 37.89 30.17 L 42.87 30.17 C 44.85 30.17 46.47 30.56 47.76 31.38 C 48.01 31.54 48.25 31.71 48.48 31.9 C 49.94 33.11 50.71 34.84 50.76 37.17 C 50.77 37.42 50.81 39.38 50.83 40.37 L 57.37 40.37 L 56.99 37.17 C 56.71 34.92 56.01 33.06 54.9 31.53 C 54.8 31.39 54.7 31.26 54.59 31.13 C 54.16 30.59 53.69 30.1 53.17 29.66 C 53.15 29.65 53.13 29.63 53.11 29.61 L 60.68 29.61 L 64.04 46 L 57.41 46 C 54.77 46 52.56 45.33 50.81 44.03 C 50.48 43.79 50.18 43.52 49.89 43.24 C 48.13 41.52 47.32 39.32 47.41 36.75 C 47.42 36.5 47.48 34.65 47.5 33.79 L 41.41 33.79 L 41.01 36.75 C 40.64 39.46 40.98 42.04 42.1 44.42 C 42.39 45.05 42.73 45.65 43.11 46.22 Z M 53.11 29.61 L 50.37 29.61 L 50.34 27.9 C 51.37 28.36 52.3 28.93 53.11 29.61 Z" stroke-linecap="round" />
</g>
		<g transform="matrix(1 0 0 1 -4 -4)" id="矢量 13"  >
<linearGradient id="SVGID_paint_linear_7_404_0_4" gradientUnits="userSpaceOnUse" gradientTransform="matrix(1 0 0 1 0 0)"  x1="64.258301" y1="53.19265" x2="33.164253" y2="27.807938">
<stop offset="0%" style="stop-color:rgb(39,121,255);stop-opacity: 0.5"/>
<stop offset="100%" style="stop-color:rgb(39,121,255);stop-opacity: 0.1"/>
</linearGradient>
<path style="stroke: none; stroke-width: 1; stroke-dasharray: none; stroke-linecap: butt; stroke-dashoffset: 0; stroke-linejoin: miter; stroke-miterlimit: 4; fill: url(#SVGID_paint_linear_7_404_0_4); fill-rule: evenodd; opacity: 1;"  transform=" translate(-49.44, -39.59)" d="M 57.83 53.19 L 72.87 53.19 L 64.75 26 L 50.31 26 L 50.34 27.9 C 50.19 27.83 50.04 27.77 49.89 27.71 C 48.04 26.96 45.93 26.59 43.54 26.59 L 33.94 26.59 L 26 53.19 L 47.34 53.19 L 47.41 50.36 C 47.59 50.47 47.76 50.58 47.94 50.69 C 50.75 52.34 54.08 53.19 57.83 53.19 Z M 43.11 46.22 L 47.52 46.22 L 47.41 50.36 C 45.87 49.38 44.59 48.21 43.58 46.87 C 43.42 46.66 43.26 46.44 43.11 46.22 Z M 43.11 46.22 L 34.55 46.22 L 37.89 30.17 L 42.87 30.17 C 44.85 30.17 46.47 30.56 47.76 31.38 C 48.01 31.54 48.25 31.71 48.48 31.9 C 49.94 33.11 50.71 34.84 50.76 37.17 C 50.77 37.42 50.81 39.38 50.83 40.37 L 57.37 40.37 L 56.99 37.17 C 56.71 34.92 56.01 33.06 54.9 31.53 C 54.8 31.39 54.7 31.26 54.59 31.13 C 54.16 30.59 53.69 30.1 53.17 29.66 C 53.15 29.65 53.13 29.63 53.11 29.61 L 60.68 29.61 L 64.04 46 L 57.41 46 C 54.77 46 52.56 45.33 50.81 44.03 C 50.48 43.79 50.18 43.52 49.89 43.24 C 48.13 41.52 47.32 39.32 47.41 36.75 C 47.42 36.5 47.48 34.65 47.5 33.79 L 41.41 33.79 L 41.01 36.75 C 40.64 39.46 40.98 42.04 42.1 44.42 C 42.39 45.05 42.73 45.65 43.11 46.22 Z M 53.11 29.61 L 50.37 29.61 L 50.34 27.9 C 51.37 28.36 52.3 28.93 53.11 29.61 Z" stroke-linecap="round" />
</g>
</g>
</g>
</svg>