<svg width="106.871582" height="87.192627" viewBox="0 0 106.872 87.1926" fill="none" xmlns="http://www.w3.org/2000/svg" xmlns:xlink="http://www.w3.org/1999/xlink">
	<desc>
			Created with Pixso.
	</desc>
	<defs>
		<filter id="filter_7_404_dd" x="0.000000" y="0.000000" width="106.871582" height="87.192627" filterUnits="userSpaceOnUse" color-interpolation-filters="sRGB">
			<feFlood flood-opacity="0" result="BackgroundImageFix"/>
			<feColorMatrix in="SourceAlpha" type="matrix" values="0 0 0 0 0 0 0 0 0 0 0 0 0 0 0 0 0 0 127 0" result="hardAlpha"/>
			<feOffset dx="4" dy="4"/>
			<feGaussianBlur stdDeviation="10"/>
			<feComposite in2="hardAlpha" operator="out" k2="-1" k3="1"/>
			<feColorMatrix type="matrix" values="0 0 0 0 0 0 0 0 0 0 0 0 0 0 0 0 0 0 0.25 0"/>
			<feBlend mode="normal" in2="BackgroundImageFix" result="effect_dropShadow_1"/>
			<feBlend mode="normal" in="SourceGraphic" in2="effect_dropShadow_1" result="shape"/>
		</filter>
		<linearGradient x1="64.258301" y1="53.192650" x2="33.164253" y2="27.807938" id="paint_linear_7_404_0" gradientUnits="userSpaceOnUse">
			<stop stop-color="#2779FF"/>
			<stop offset="1.000000" stop-color="#2779FF" stop-opacity="0.200000"/>
		</linearGradient>
	</defs>
	<circle id="椭圆 3" cx="49.614746" cy="39.596313" r="39.000000" fill="#2779FF" fill-opacity="1.000000"/>
	<g filter="url(#filter_7_404_dd)">
		<path id="矢量 13" d="M57.83 53.19L72.87 53.19L64.75 26L50.31 26L50.34 27.9C50.19 27.83 50.04 27.77 49.89 27.71C48.04 26.96 45.93 26.59 43.54 26.59L33.94 26.59L26 53.19L47.34 53.19L47.41 50.36C47.59 50.47 47.76 50.58 47.94 50.69C50.75 52.34 54.08 53.19 57.83 53.19ZM43.11 46.22L47.52 46.22L47.41 50.36C45.87 49.38 44.59 48.21 43.58 46.87C43.42 46.66 43.26 46.44 43.11 46.22ZM43.11 46.22L34.55 46.22L37.89 30.17L42.87 30.17C44.85 30.17 46.47 30.56 47.76 31.38C48.01 31.54 48.25 31.71 48.48 31.9C49.94 33.11 50.71 34.84 50.76 37.17C50.77 37.42 50.81 39.38 50.83 40.37L57.37 40.37L56.99 37.17C56.71 34.92 56.01 33.06 54.9 31.53C54.8 31.39 54.7 31.26 54.59 31.13C54.16 30.59 53.69 30.1 53.17 29.66C53.15 29.65 53.13 29.63 53.11 29.61L60.68 29.61L64.04 46L57.41 46C54.77 46 52.56 45.33 50.81 44.03C50.48 43.79 50.18 43.52 49.89 43.24C48.13 41.52 47.32 39.32 47.41 36.75C47.42 36.5 47.48 34.65 47.5 33.79L41.41 33.79L41.01 36.75C40.64 39.46 40.98 42.04 42.1 44.42C42.39 45.05 42.73 45.65 43.11 46.22ZM53.11 29.61L50.37 29.61L50.34 27.9C51.37 28.36 52.3 28.93 53.11 29.61Z" fill="#FFFFFF" fill-opacity="1.000000" fill-rule="evenodd"/>
		<path id="矢量 13" d="M57.83 53.19L72.87 53.19L64.75 26L50.31 26L50.34 27.9C50.19 27.83 50.04 27.77 49.89 27.71C48.04 26.96 45.93 26.59 43.54 26.59L33.94 26.59L26 53.19L47.34 53.19L47.41 50.36C47.59 50.47 47.76 50.58 47.94 50.69C50.75 52.34 54.08 53.19 57.83 53.19ZM43.11 46.22L47.52 46.22L47.41 50.36C45.87 49.38 44.59 48.21 43.58 46.87C43.42 46.66 43.26 46.44 43.11 46.22ZM43.11 46.22L34.55 46.22L37.89 30.17L42.87 30.17C44.85 30.17 46.47 30.56 47.76 31.38C48.01 31.54 48.25 31.71 48.48 31.9C49.94 33.11 50.71 34.84 50.76 37.17C50.77 37.42 50.81 39.38 50.83 40.37L57.37 40.37L56.99 37.17C56.71 34.92 56.01 33.06 54.9 31.53C54.8 31.39 54.7 31.26 54.59 31.13C54.16 30.59 53.69 30.1 53.17 29.66C53.15 29.65 53.13 29.63 53.11 29.61L60.68 29.61L64.04 46L57.41 46C54.77 46 52.56 45.33 50.81 44.03C50.48 43.79 50.18 43.52 49.89 43.24C48.13 41.52 47.32 39.32 47.41 36.75C47.42 36.5 47.48 34.65 47.5 33.79L41.41 33.79L41.01 36.75C40.64 39.46 40.98 42.04 42.1 44.42C42.39 45.05 42.73 45.65 43.11 46.22ZM53.11 29.61L50.37 29.61L50.34 27.9C51.37 28.36 52.3 28.93 53.11 29.61Z" fill="url(#paint_linear_7_404_0)" fill-opacity="0.500000" fill-rule="evenodd"/>
	</g>
</svg>
